<?xml version="1.0" standalone="no"?>
<!DOCTYPE svg PUBLIC "-//W3C//DTD SVG 20010904//EN"
 "http://www.w3.org/TR/2001/REC-SVG-20010904/DTD/svg10.dtd">
<svg version="1.0" xmlns="http://www.w3.org/2000/svg"
 width="400.000000pt" height="400.000000pt" viewBox="0 0 400.000000 400.000000"
 preserveAspectRatio="xMidYMid meet">

<g transform="translate(0.000000,400.000000) scale(0.100000,-0.100000)"
fill="#000000" stroke="none">
<path d="M1924 3639 c-3 -6 -1 -16 5 -22 9 -9 14 -8 21 3 9 15 4 30 -10 30 -5
0 -12 -5 -16 -11z"/>
<path d="M2005 3641 c-8 -15 3 -31 21 -31 9 0 14 7 12 17 -4 20 -24 28 -33 14z"/>
<path d="M1830 3625 c0 -8 9 -15 20 -15 11 0 20 7 20 15 0 8 -9 15 -20 15 -11
0 -20 -7 -20 -15z"/>
<path d="M2092 3623 c2 -10 10 -18 18 -18 8 0 16 8 18 18 2 12 -3 17 -18 17
-15 0 -20 -5 -18 -17z"/>
<path d="M1750 3615 c0 -8 7 -15 15 -15 8 0 15 7 15 15 0 8 -7 15 -15 15 -8 0
-15 -7 -15 -15z"/>
<path d="M2180 3615 c0 -8 7 -15 15 -15 8 0 15 7 15 15 0 8 -7 15 -15 15 -8 0
-15 -7 -15 -15z"/>
<path d="M1664 3609 c-10 -17 13 -36 27 -22 12 12 4 33 -11 33 -5 0 -12 -5
-16 -11z"/>
<path d="M2263 3604 c-7 -19 2 -28 22 -21 19 8 19 23 0 31 -9 3 -18 -1 -22
-10z"/>
<path d="M1587 3594 c-13 -13 -7 -24 14 -24 11 0 19 5 17 12 -5 14 -22 21 -31
12z"/>
<path d="M2354 3586 c-8 -22 3 -33 18 -18 9 9 9 15 0 24 -9 9 -13 7 -18 -6z"/>
<path d="M1510 3566 c0 -8 4 -17 8 -20 13 -8 35 11 28 23 -10 16 -36 14 -36
-3z"/>
<path d="M2430 3555 c0 -8 7 -15 15 -15 8 0 15 7 15 15 0 8 -7 15 -15 15 -8 0
-15 -7 -15 -15z"/>
<path d="M1432 3538 c5 -15 28 -18 29 -3 0 6 -7 12 -17 13 -10 3 -15 -1 -12
-10z"/>
<path d="M1767 3529 c-377 -55 -713 -243 -956 -534 -177 -213 -284 -435 -325
-677 l-7 -38 1497 0 1497 0 -7 48 c-17 124 -90 321 -169 455 -245 412 -649
682 -1120 746 -90 13 -325 13 -410 0z m136 -106 c-13 -2 -33 -2 -45 0 -13 2
-3 4 22 4 25 0 35 -2 23 -4z m210 0 c-13 -2 -33 -2 -45 0 -13 2 -3 4 22 4 25
0 35 -2 23 -4z m-296 -9 c-3 -3 -12 -4 -19 -1 -8 3 -5 6 6 6 11 1 17 -2 13 -5z
m169 -89 c20 -19 33 -35 28 -35 -5 -1 4 -8 19 -16 18 -10 26 -21 23 -30 -3 -8
1 -15 9 -15 34 -3 40 -5 38 -16 -1 -6 4 -16 12 -23 11 -9 12 -7 8 9 -6 22 12
30 19 9 2 -6 12 -12 21 -14 9 -1 15 2 12 6 -3 5 -2 11 3 14 13 8 11 -28 -2
-37 -6 -5 1 -7 16 -4 15 2 25 0 22 -4 -3 -5 -12 -9 -21 -9 -14 0 -13 -3 3 -22
19 -21 19 -21 -1 -14 -15 5 -17 4 -8 -5 14 -14 36 -2 29 17 -3 8 -1 14 3 14 5
0 11 -7 15 -15 3 -8 1 -15 -3 -15 -5 0 -12 -18 -16 -40 -4 -25 -11 -38 -17
-33 -6 3 -8 2 -5 -4 3 -5 -3 -27 -14 -47 -11 -21 -15 -35 -8 -31 6 4 3 -4 -6
-19 -10 -14 -13 -26 -7 -26 6 0 13 6 16 13 3 6 4 3 3 -8 -2 -17 6 -21 53 -26
45 -5 48 -6 17 -7 -25 -1 -36 -6 -31 -13 3 -6 19 -9 35 -7 16 3 29 0 29 -5 0
-5 6 -5 13 1 8 7 18 7 27 2 8 -6 22 -10 30 -10 13 0 13 1 0 10 -17 11 -10 13
14 4 8 -3 12 -12 9 -20 -5 -13 -1 -16 30 -18 6 -1 17 -8 23 -16 10 -11 15 -12
27 -2 11 10 17 9 26 -1 6 -8 7 -18 3 -23 -4 -4 1 -2 11 5 11 9 17 9 17 3 0 -6
6 -9 14 -6 8 3 17 1 21 -5 3 -6 15 -11 26 -11 11 0 18 4 15 8 -3 5 1 9 9 9 17
0 28 -24 14 -33 -14 -8 10 -36 25 -27 6 3 7 2 3 -2 -10 -12 -39 -16 -32 -5 3
5 1 12 -5 15 -8 5 -7 11 1 22 11 12 9 13 -14 8 -17 -5 -33 -2 -42 5 -10 8 -19
9 -27 3 -7 -6 -28 -15 -46 -21 -28 -10 -37 -8 -66 12 -18 12 -80 33 -137 47
-93 21 -126 24 -309 24 -192 -1 -211 -3 -305 -28 -55 -15 -112 -37 -128 -48
-26 -19 -30 -19 -72 -4 -56 18 -63 19 -97 1 -19 -10 -30 -11 -34 -4 -5 7 -2 8
6 3 10 -6 12 -4 7 9 -4 11 -3 15 4 10 11 -7 78 10 112 27 10 5 23 7 29 3 7 -5
8 -3 3 6 -5 9 -2 10 14 5 12 -4 21 -2 21 4 0 6 3 10 8 9 15 -3 172 36 172 43
0 4 -8 10 -17 12 -14 4 -13 5 4 6 12 0 24 -5 26 -11 3 -8 6 -6 6 5 1 9 6 17
11 17 6 0 10 7 10 15 0 8 -5 15 -12 15 -6 0 -8 3 -5 6 4 4 13 1 22 -6 19 -16
19 -11 0 33 -8 20 -15 53 -15 74 0 22 -4 33 -8 26 -6 -9 -14 -3 -26 19 -11 17
-14 28 -9 25 6 -4 17 0 24 9 11 13 9 14 -17 9 -23 -5 -26 -4 -12 5 9 6 15 16
12 23 -2 7 15 19 47 30 28 10 49 21 46 24 -3 2 -14 0 -24 -5 -13 -7 -24 -6
-38 5 -18 14 -18 15 -1 9 27 -9 98 14 92 31 -6 16 30 38 39 23 3 -6 -4 -10
-17 -10 -13 0 -18 -4 -13 -8 17 -12 14 -41 -3 -35 -10 4 -13 2 -8 -5 4 -7 2
-12 -5 -12 -7 0 -10 -2 -8 -5 3 -2 19 1 37 7 21 8 33 21 37 39 7 29 55 49 55
23 0 -8 -5 -14 -11 -14 -8 0 -8 -4 0 -14 10 -11 8 -17 -6 -25 -17 -10 -17 -10
0 -11 16 0 21 10 18 39 -2 7 3 10 9 6 16 -10 9 26 -8 44 -10 10 -16 11 -20 3
-5 -7 -14 -5 -27 5 -20 15 -20 15 1 9 22 -7 54 15 54 35 0 15 6 11 46 -26z
m221 -11 c-3 -3 -12 -4 -19 -1 -8 3 -5 6 6 6 11 1 17 -2 13 -5z m-140 -30 c-3
-3 -12 -4 -19 -1 -8 3 -5 6 6 6 11 1 17 -2 13 -5z m20 -39 c0 -8 -4 -12 -9 -9
-5 3 -6 10 -3 15 9 13 12 11 12 -6z m-634 -32 c-7 -2 -21 -2 -30 0 -10 3 -4 5
12 5 17 0 24 -2 18 -5z m64 1 c-3 -3 -12 -4 -19 -1 -8 3 -5 6 6 6 11 1 17 -2
13 -5z m1333 -70 c0 -8 -19 -13 -24 -6 -3 5 1 9 9 9 8 0 15 -2 15 -3z m-1213
-70 c-3 -3 -12 -4 -19 -1 -8 3 -5 6 6 6 11 1 17 -2 13 -5z m590 -26 c-3 -8 -6
-5 -6 6 -1 11 2 17 5 13 3 -3 4 -12 1 -19z m38 4 c-3 -3 -11 0 -18 7 -9 10 -8
11 6 5 10 -3 15 -9 12 -12z m-31 -38 c3 -8 2 -12 -4 -9 -6 3 -10 10 -10 16 0
14 7 11 14 -7z m346 2 c0 -2 -8 -10 -17 -17 -16 -13 -17 -12 -4 4 13 16 21 21
21 13z m-1398 -96 c2 -59 6 -75 18 -75 12 0 16 16 18 75 4 111 22 113 22 3 0
-72 -3 -93 -16 -104 -15 -12 -16 -32 -9 -179 13 -279 15 -255 -20 -255 -28 0
-30 2 -29 35 1 19 5 114 9 211 7 156 6 179 -8 200 -17 24 -25 158 -10 173 14
14 22 -12 25 -84z m524 61 c1 -6 0 -7 -3 -1 -2 5 -9 8 -13 5 -5 -3 -11 -1 -14
4 -4 5 2 8 11 7 9 -2 18 -8 19 -15z m519 -1 c-3 -5 -14 -10 -23 -9 -14 0 -13
2 3 9 27 11 27 11 20 0z m608 -73 c2 -18 1 -40 -4 -49 -9 -16 -11 -16 -34 4
-27 23 -41 74 -30 107 6 20 7 20 35 -5 15 -14 30 -39 33 -57z m-1536 41 c-3
-8 -6 -5 -6 6 -1 11 2 17 5 13 3 -3 4 -12 1 -19z m-190 -65 c-2 -16 -4 -3 -4
27 0 30 2 43 4 28 2 -16 2 -40 0 -55z m596 62 c-3 -9 -8 -14 -10 -11 -3 3 -2
9 2 15 9 16 15 13 8 -4z m-388 -37 c6 -4 2 -8 -7 -8 -10 0 -18 7 -18 17 0 9 3
12 8 7 4 -5 12 -12 17 -16z m1282 16 c-3 -3 -12 -4 -19 -1 -8 3 -5 6 6 6 11 1
17 -2 13 -5z m-1227 -18 c0 -3 -4 -8 -10 -11 -5 -3 -10 -1 -10 4 0 6 5 11 10
11 6 0 10 -2 10 -4z m1230 0 c0 -2 -6 -15 -13 -28 -10 -20 -17 -23 -35 -17
-13 5 -22 17 -22 29 0 16 6 20 35 20 19 0 35 -2 35 -4z m-1540 -22 c0 -3 -18
-4 -39 -2 -22 1 -38 5 -36 8 4 7 75 1 75 -6z m1895 6 c-3 -5 -18 -10 -33 -9
l-27 1 25 8 c35 11 42 11 35 0z m-1666 -74 l-23 -21 17 21 c12 15 16 31 12 50
l-5 29 11 -29 c10 -25 8 -31 -12 -50z m-241 29 c-2 -22 -4 -23 -19 -9 -10 9
-23 12 -35 7 -16 -6 -17 -5 -4 10 8 9 25 16 37 17 18 0 22 -5 21 -25z m1907
16 c-18 -17 -70 -18 -60 -1 3 6 20 10 38 10 19 0 27 -4 22 -9z m-510 -20 c3
-5 2 -12 -3 -15 -5 -3 -9 1 -9 9 0 17 3 19 12 6z m198 -11 c3 -11 3 -20 1 -20
-2 0 -8 9 -14 20 -6 11 -7 20 -2 20 6 0 12 -9 15 -20z m312 -8 c-3 -3 -11 0
-18 7 -9 10 -8 11 6 5 10 -3 15 -9 12 -12z m-1969 1 c-18 -5 -19 -13 -12 -141
4 -75 9 -138 11 -141 13 -12 17 18 22 143 3 75 10 136 15 136 5 0 7 -66 6
-147 l-3 -148 -26 -3 c-14 -2 -31 3 -37 10 -6 8 -12 70 -14 153 l-3 140 30 1
c17 1 21 -1 11 -3z m1181 -33 c96 -10 178 -33 202 -55 12 -12 12 -17 1 -29 -7
-9 -20 -16 -29 -15 -10 0 -11 2 -3 6 39 15 -31 53 -99 53 -40 0 -41 -1 -26
-18 36 -40 6 -72 -86 -92 -32 -7 -21 -8 45 -4 49 3 111 12 139 20 59 18 78 11
28 -10 -154 -64 -584 -65 -736 -1 -51 22 -37 27 27 10 30 -8 93 -17 140 -19
65 -4 75 -3 43 4 -53 11 -99 35 -107 55 -3 9 3 24 14 35 20 20 20 20 -20 20
-22 0 -57 -7 -77 -15 -30 -13 -33 -17 -23 -30 10 -12 10 -15 -3 -15 -24 0 -42
27 -28 44 16 19 102 44 186 55 97 12 302 13 412 1z m515 -47 c-6 -3 -9 -10 -6
-15 4 -7 2 -8 -5 -4 -8 6 -9 12 -2 20 7 8 7 17 1 24 -6 7 -2 5 8 -4 12 -12 14
-18 4 -21z m357 -9 c75 -63 30 -184 -70 -184 -73 0 -124 75 -96 143 18 42 44
63 32 26 -20 -63 -18 -97 9 -123 30 -31 60 -33 104 -6 28 17 32 25 32 63 0 58
-33 91 -84 85 -20 -2 -36 -1 -36 2 0 30 71 26 109 -6z m-1712 -31 c-3 -10 -5
-4 -5 12 0 17 2 24 5 18 2 -7 2 -21 0 -30z m122 6 c40 -14 62 -49 31 -49 -24
0 -80 27 -80 39 0 7 10 21 15 21 1 0 16 -5 34 -11z m1083 -4 c2 -15 -86 -58
-90 -45 -6 16 26 48 52 53 28 5 37 3 38 -8z m65 -39 c-17 -23 -34 -42 -36 -40
-5 4 53 84 61 84 4 0 -7 -20 -25 -44z m90 22 c-3 -8 -6 -5 -6 6 -1 11 2 17 5
13 3 -3 4 -12 1 -19z m73 -190 c7 -54 10 -104 7 -113 -7 -17 -42 -20 -52 -5
-4 6 -1 62 6 126 7 64 16 110 20 102 4 -7 13 -57 19 -110z m-1863 90 c-3 -8
-6 -5 -6 6 -1 11 2 17 5 13 3 -3 4 -12 1 -19z m1643 18 c0 -9 -30 -14 -35 -6
-4 6 3 10 14 10 12 0 21 -2 21 -4z m-1023 -22 c-3 -3 -12 -4 -19 -1 -8 3 -5 6
6 6 11 1 17 -2 13 -5z m923 2 c0 -3 -4 -8 -10 -11 -5 -3 -10 -1 -10 4 0 6 5
11 10 11 6 0 10 -2 10 -4z m-131 -21 c-43 -43 -289 -73 -451 -55 -111 12 -191
29 -224 48 -21 12 5 12 208 -6 120 -11 275 -6 388 13 100 17 96 17 79 0z m121
-9 c0 -2 -7 -9 -15 -16 -13 -11 -14 -10 -9 4 5 14 24 23 24 12z m-1144 -47 c1
-5 2 -10 3 -11 2 -2 4 -14 7 -28 3 -18 2 -21 -5 -10 -5 8 -8 17 -5 21 2 4 0
10 -6 14 -5 3 -10 13 -10 22 0 16 14 9 16 -8z m1881 15 c-3 -3 -12 -4 -19 -1
-8 3 -5 6 6 6 11 1 17 -2 13 -5z m-769 -28 c-1 -15 -7 -22 -15 -19 -9 3 -11 0
-8 -10 7 -16 -21 -31 -30 -16 -4 5 -1 8 7 7 7 -2 12 3 10 10 -1 7 5 15 13 18
8 4 15 12 15 20 0 8 2 14 5 14 3 0 4 -11 3 -24z m516 -15 c3 -5 0 -14 -8 -20
-8 -7 -12 -25 -10 -44 2 -20 1 -27 -5 -19 -4 8 -6 26 -4 40 2 15 5 33 5 40 2
14 14 16 22 3z m266 -31 c0 -27 -19 -35 -38 -17 -12 13 -13 19 -3 31 16 19 41
10 41 -14z m-93 -17 c-3 -10 -5 -4 -5 12 0 17 2 24 5 18 2 -7 2 -21 0 -30z
m-1112 12 c61 0 137 4 170 8 75 10 64 -6 -20 -27 -75 -20 -221 -20 -304 -1
-96 23 -109 36 -26 27 39 -4 120 -7 180 -7z m1015 -10 c0 -21 -19 -28 -36 -15
-10 9 -11 16 -3 26 12 15 39 8 39 -11z m-596 -13 c3 -5 -1 -9 -9 -9 -8 0 -12
4 -9 9 3 4 7 8 9 8 2 0 6 -4 9 -8z m816 -44 c0 -18 -2 -20 -9 -8 -6 8 -7 18
-5 22 9 14 14 9 14 -14z m-1790 -4 c0 -2 -7 -4 -15 -4 -8 0 -15 4 -15 10 0 5
7 7 15 4 8 -4 15 -8 15 -10z m870 0 c0 -2 -7 -4 -15 -4 -8 0 -15 4 -15 10 0 5
7 7 15 4 8 -4 15 -8 15 -10z m565 6 c3 -5 1 -10 -4 -10 -6 0 -11 5 -11 10 0 6
2 10 4 10 3 0 8 -4 11 -10z m-2085 -10 c0 -5 -5 -10 -11 -10 -5 0 -7 5 -4 10
3 6 8 10 11 10 2 0 4 -4 4 -10z m345 0 c3 -5 1 -10 -4 -10 -6 0 -11 5 -11 10
0 6 2 10 4 10 3 0 8 -4 11 -10z m2075 2 c0 -12 -68 -13 -75 -2 -4 6 11 10 34
10 23 0 41 -4 41 -8z m175 -2 c-3 -5 -10 -10 -16 -10 -5 0 -9 5 -9 10 0 6 7
10 16 10 8 0 12 -4 9 -10z"/>
<path d="M1935 3320 c-3 -5 -1 -10 4 -10 6 0 11 5 11 10 0 6 -2 10 -4 10 -3 0
-8 -4 -11 -10z"/>
<path d="M1820 3190 c-8 -5 -12 -12 -9 -15 4 -3 12 1 19 10 14 17 11 19 -10 5z"/>
<path d="M1870 3190 c0 -4 7 -7 15 -6 23 3 26 12 5 13 -11 1 -20 -2 -20 -7z"/>
<path d="M2080 3196 c0 -2 8 -10 18 -17 15 -13 16 -12 3 4 -13 16 -21 21 -21
13z"/>
<path d="M2020 3181 c0 -6 5 -13 10 -16 6 -3 10 1 10 9 0 9 -4 16 -10 16 -5 0
-10 -4 -10 -9z"/>
<path d="M2005 3137 c0 -19 -5 -31 -12 -30 -7 2 -10 -7 -7 -22 5 -29 -16 -34
-36 -10 -11 13 -8 19 11 17 3 -1 6 6 6 14 0 10 -9 6 -28 -12 -16 -15 -26 -31
-23 -36 6 -10 15 -11 12 0 -2 4 2 7 7 7 6 0 9 -4 7 -8 -1 -5 3 -5 9 -1 8 4 9
-1 3 -17 -4 -13 -7 -40 -6 -59 2 -24 -1 -31 -7 -21 -7 10 -9 7 -8 -12 1 -14 5
-23 10 -20 4 2 7 -3 7 -11 0 -8 3 -17 8 -19 4 -3 7 27 7 66 0 40 4 73 9 74 13
2 28 31 22 42 -3 5 2 15 11 22 14 12 15 11 9 -11 -5 -19 -2 -17 11 8 16 31 16
33 -3 52 -19 19 -19 19 -19 -13z"/>
<path d="M1718 3153 c7 -3 16 -2 19 1 4 3 -2 6 -13 5 -11 0 -14 -3 -6 -6z"/>
<path d="M1793 3145 c0 -7 6 -11 14 -8 7 3 13 6 13 8 0 2 -6 5 -13 8 -8 3 -14
-1 -14 -8z"/>
<path d="M1837 3149 c7 -9 9 -20 5 -25 -4 -4 1 -2 11 5 9 7 17 16 17 19 0 3
-3 2 -7 -1 -3 -4 -13 -1 -22 6 -14 10 -14 10 -4 -4z"/>
<path d="M1975 3141 c-3 -5 -2 -12 3 -15 5 -3 9 1 9 9 0 17 -3 19 -12 6z"/>
<path d="M2100 3122 c0 -12 3 -12 15 -2 8 7 15 13 15 15 0 1 -7 2 -15 2 -8 0
-15 -7 -15 -15z"/>
<path d="M2131 3107 c-1 -10 -5 -15 -11 -12 -5 3 -10 -2 -11 -12 0 -16 -1 -16
-9 2 -9 20 -9 20 -9 0 -1 -11 -8 -31 -17 -43 -14 -20 -14 -23 0 -28 9 -3 16
-10 16 -16 0 -5 -5 -6 -12 -2 -7 5 -8 3 -3 -6 11 -18 68 48 61 73 -2 9 0 15 5
11 11 -6 11 4 -1 31 -8 18 -9 18 -9 2z m-24 -77 c-1 -11 -5 -20 -9 -20 -4 0
-8 9 -8 20 0 11 4 20 9 20 6 0 9 -9 8 -20z"/>
<path d="M1820 3061 c0 -17 -5 -33 -10 -36 -6 -4 -8 -11 -4 -16 3 -5 10 -6 16
-3 7 5 9 1 5 -9 -4 -11 1 -20 14 -28 20 -10 20 -10 3 23 -10 18 -16 48 -15 66
1 17 0 32 -3 32 -3 0 -6 -13 -6 -29z"/>
<path d="M1900 3039 c0 -22 27 -32 34 -13 4 9 2 12 -5 8 -6 -4 -15 0 -20 7 -7
11 -9 11 -9 -2z"/>
<path d="M2037 2976 c-18 -14 -23 -46 -7 -46 6 0 19 -9 30 -20 15 -15 20 -16
20 -6 0 8 -4 18 -10 21 -5 3 -10 11 -10 16 0 6 4 8 9 5 5 -4 7 3 4 14 -7 27
-15 31 -36 16z m14 -23 c-8 -15 -10 -15 -11 -2 0 17 10 32 18 25 2 -3 -1 -13
-7 -23z"/>
<path d="M2151 2893 c6 -7 21 -12 33 -12 20 2 20 2 -2 6 -12 2 -20 8 -18 12 3
4 -1 8 -9 8 -11 0 -12 -4 -4 -14z"/>
<path d="M1821 2750 c-24 -5 -55 -17 -69 -26 l-26 -17 22 -17 c34 -28 142 -43
261 -37 168 9 240 47 154 84 -45 19 -272 28 -342 13z m243 -62 c-6 -10 -165
-10 -181 0 -6 4 33 7 87 8 54 0 97 -3 94 -8z"/>
<path d="M1918 2623 c29 -2 74 -2 100 0 26 2 2 3 -53 3 -55 0 -76 -1 -47 -3z"/>
<path d="M2517 3534 c-9 -10 2 -24 19 -24 8 0 14 7 14 15 0 15 -21 21 -33 9z"/>
<path d="M1354 3519 c-10 -17 13 -36 27 -22 12 12 4 33 -11 33 -5 0 -12 -5
-16 -11z"/>
<path d="M2605 3500 c-8 -13 4 -32 16 -25 12 8 12 35 0 35 -6 0 -13 -4 -16
-10z"/>
<path d="M1280 3475 c0 -8 7 -15 15 -15 8 0 15 7 15 15 0 8 -7 15 -15 15 -8 0
-15 -7 -15 -15z"/>
<path d="M2676 3461 c-7 -11 18 -33 27 -24 4 3 7 12 7 20 0 15 -26 18 -34 4z"/>
<path d="M1203 3438 c2 -7 10 -13 17 -13 7 0 15 6 18 13 2 7 -5 12 -18 12 -13
0 -20 -5 -17 -12z"/>
<path d="M2754 3419 c-3 -6 -2 -15 2 -19 12 -12 38 5 30 19 -9 14 -23 14 -32
0z"/>
<path d="M1130 3395 c0 -8 7 -15 15 -15 8 0 15 7 15 15 0 8 -7 15 -15 15 -8 0
-15 -7 -15 -15z"/>
<path d="M2830 3364 c0 -17 22 -14 28 4 2 7 -3 12 -12 12 -9 0 -16 -7 -16 -16z"/>
<path d="M1067 3363 c-13 -12 -7 -33 8 -33 8 0 15 9 15 20 0 20 -11 26 -23 13z"/>
<path d="M2900 3314 c0 -9 5 -14 12 -12 18 6 21 28 4 28 -9 0 -16 -7 -16 -16z"/>
<path d="M994 3309 c-10 -17 13 -36 27 -22 12 12 4 33 -11 33 -5 0 -12 -5 -16
-11z"/>
<path d="M931 3256 c-12 -14 -5 -26 16 -26 15 0 18 26 4 34 -5 3 -14 0 -20 -8z"/>
<path d="M2992 3238 c5 -15 28 -18 29 -3 0 6 -7 12 -17 13 -10 3 -15 -1 -12
-10z"/>
<path d="M865 3200 c-7 -12 2 -30 16 -30 5 0 9 9 9 20 0 21 -15 27 -25 10z"/>
<path d="M3056 3191 c-7 -11 18 -33 27 -24 4 3 7 12 7 20 0 15 -26 18 -34 4z"/>
<path d="M800 3135 c0 -8 7 -15 15 -15 8 0 15 7 15 15 0 8 -7 15 -15 15 -8 0
-15 -7 -15 -15z"/>
<path d="M3125 3140 c-11 -17 5 -32 21 -19 7 6 11 15 8 20 -7 12 -21 11 -29
-1z"/>
<path d="M725 3041 c-3 -5 -1 -12 5 -16 12 -7 30 2 30 16 0 12 -27 12 -35 0z"/>
<path d="M3200 3025 c0 -8 7 -15 15 -15 8 0 15 7 15 15 0 8 -7 15 -15 15 -8 0
-15 -7 -15 -15z"/>
<path d="M670 2960 c0 -13 5 -20 13 -17 6 2 12 10 12 17 0 7 -6 15 -12 18 -8
2 -13 -5 -13 -18z"/>
<path d="M3252 2959 c2 -6 8 -10 13 -10 5 0 11 4 13 10 2 6 -4 11 -13 11 -9 0
-15 -5 -13 -11z"/>
<path d="M3300 2896 c0 -9 7 -16 16 -16 17 0 14 22 -4 28 -7 2 -12 -3 -12 -12z"/>
<path d="M620 2885 c0 -8 7 -15 15 -15 8 0 15 7 15 15 0 8 -7 15 -15 15 -8 0
-15 -7 -15 -15z"/>
<path d="M3344 2829 c-3 -6 -2 -15 2 -19 12 -12 38 5 30 19 -9 14 -23 14 -32
0z"/>
<path d="M570 2805 c0 -8 7 -15 15 -15 8 0 15 7 15 15 0 8 -7 15 -15 15 -8 0
-15 -7 -15 -15z"/>
<path d="M3387 2754 c-13 -13 -7 -24 14 -24 11 0 19 5 17 12 -5 14 -22 21 -31
12z"/>
<path d="M530 2725 c0 -8 7 -15 15 -15 8 0 15 7 15 15 0 8 -7 15 -15 15 -8 0
-15 -7 -15 -15z"/>
<path d="M3420 2665 c0 -8 7 -15 15 -15 8 0 15 7 15 15 0 8 -7 15 -15 15 -8 0
-15 -7 -15 -15z"/>
<path d="M495 2660 c-8 -13 4 -32 16 -25 12 8 12 35 0 35 -6 0 -13 -4 -16 -10z"/>
<path d="M457 2584 c-13 -13 -7 -24 14 -24 11 0 19 5 17 12 -5 14 -22 21 -31
12z"/>
<path d="M3460 2574 c0 -9 5 -14 12 -12 18 6 21 28 4 28 -9 0 -16 -7 -16 -16z"/>
<path d="M3494 2496 c-8 -22 3 -33 18 -18 9 9 9 15 0 24 -9 9 -13 7 -18 -6z"/>
<path d="M422 2488 c6 -18 28 -21 28 -4 0 9 -7 16 -16 16 -9 0 -14 -5 -12 -12z"/>
<path d="M3192 2148 c-29 -17 -59 -43 -67 -58 -8 -15 -27 -33 -43 -39 -50 -21
-62 -56 -62 -178 0 -71 4 -113 12 -121 9 -9 73 -12 228 -12 155 0 219 3 228
12 18 18 16 209 -2 253 -8 18 -27 40 -43 49 -15 8 -41 31 -56 50 -15 20 -36
36 -46 36 -10 0 -26 9 -36 20 -25 27 -50 24 -113 -12z m78 -178 c0 -5 -4 -10
-10 -10 -5 0 -10 5 -10 10 0 6 5 10 10 10 6 0 10 -4 10 -10z"/>
<path d="M3016 2154 c-9 -8 -16 -19 -16 -24 0 -16 31 -40 51 -40 27 0 47 44
29 65 -16 19 -44 19 -64 -1z"/>
<path d="M3440 2155 c-26 -32 13 -81 48 -59 34 22 22 74 -18 74 -10 0 -23 -7
-30 -15z"/>
<path d="M1188 2149 c-10 -5 -18 -22 -18 -36 l0 -26 24 22 24 23 12 -23 c9
-15 11 -52 8 -111 l-5 -88 27 0 27 0 -5 104 c-5 114 5 139 40 95 l19 -24 -3
30 c-2 21 -10 31 -28 36 -38 11 -103 10 -122 -2z"/>
<path d="M1748 2149 c-11 -6 -18 -22 -18 -37 l1 -27 20 24 c15 19 22 22 32 12
14 -14 17 -153 4 -188 -8 -21 -5 -23 25 -23 l34 0 -1 107 c0 72 4 107 12 110
6 2 14 -5 18 -16 9 -30 27 -26 23 6 -2 19 -10 29 -28 34 -38 11 -103 10 -122
-2z"/>
<path d="M1933 2150 c-13 -5 -23 -17 -23 -26 0 -14 3 -14 15 -4 26 22 29 3 12
-75 -10 -42 -17 -89 -17 -105 0 -28 3 -30 36 -30 l35 0 -20 26 c-25 32 -27 61
-5 92 19 27 60 29 74 3 13 -25 13 -77 0 -102 -10 -17 -7 -19 26 -19 l36 0 -7
48 c-8 61 -34 164 -45 181 -10 17 -88 24 -117 11z m92 -50 c0 -9 -11 -16 -28
-18 -26 -3 -28 -2 -17 18 13 23 45 23 45 0z"/>
<path d="M2117 2153 c-3 -5 -1 -26 4 -48 5 -22 16 -75 25 -117 15 -75 16 -78
43 -78 28 0 28 2 29 54 0 30 5 63 10 72 8 15 11 12 17 -17 20 -99 25 -109 51
-109 23 0 25 3 20 25 -9 35 42 188 60 181 8 -3 14 -1 14 4 0 6 5 10 10 10 14
0 12 -46 -5 -110 -8 -30 -15 -67 -15 -82 0 -25 3 -28 35 -28 37 0 44 10 20 30
-20 16 -19 74 1 94 19 20 48 21 63 2 16 -19 17 -77 2 -104 -11 -21 -10 -22 24
-22 33 0 35 2 35 33 -1 57 -37 190 -56 204 -21 16 -73 17 -110 3 -17 -7 -31
-7 -38 -1 -7 6 -22 8 -34 4 -17 -4 -20 -9 -12 -23 13 -24 13 -56 -1 -104 -13
-48 -25 -37 -36 34 -7 49 -11 55 -33 55 -21 0 -25 -6 -32 -45 -14 -83 -18 -96
-29 -79 -5 7 -8 48 -7 89 3 75 3 75 -24 78 -14 2 -28 -1 -31 -5z m371 -50 c-2
-10 -13 -19 -26 -21 -24 -4 -25 -2 -16 22 9 23 46 21 42 -1z"/>
<path d="M1512 2103 c-6 -2 -10 -9 -7 -14 3 -5 6 -47 6 -94 l0 -85 55 0 55 0
-3 32 c-2 22 -9 34 -21 36 -15 3 -18 0 -13 -16 4 -11 2 -23 -3 -26 -14 -9 -43
24 -37 41 3 8 6 19 6 24 0 5 11 9 25 9 16 0 25 6 25 15 0 10 -10 15 -31 15
-24 0 -30 4 -27 18 3 12 13 17 36 16 34 -2 39 5 20 24 -12 12 -62 15 -86 5z"/>
<path d="M1358 2005 c-3 -94 -3 -95 20 -95 19 0 22 4 17 21 -9 29 14 81 34 77
12 -3 16 -15 16 -51 0 -38 3 -47 18 -47 15 0 17 11 17 95 0 88 -1 95 -20 95
-16 0 -19 -5 -13 -30 5 -28 4 -30 -27 -30 -31 0 -32 2 -26 30 4 25 2 30 -14
30 -17 0 -19 -9 -22 -95z"/>
<path d="M3596 2007 c-21 -15 -18 -45 6 -60 12 -8 21 -7 32 2 21 17 21 57 0
65 -20 8 -17 8 -38 -7z"/>
<path d="M1014 1745 c-4 -8 -12 -15 -19 -15 -8 0 -15 -6 -18 -12 -2 -7 -2 -3
0 10 2 15 -2 22 -12 22 -10 0 -15 -10 -15 -30 0 -23 4 -30 20 -30 10 0 24 8
29 18 10 16 10 16 11 0 0 -10 5 -18 10 -18 6 0 10 16 10 35 0 37 -7 45 -16 20z"/>
<path d="M1556 1739 c-18 -26 -21 -49 -6 -49 6 0 10 6 10 14 0 8 5 18 11 21 6
4 9 0 7 -11 -2 -11 4 -20 15 -22 15 -3 16 0 5 25 -18 43 -24 47 -42 22z"/>
<path d="M1638 1755 c-8 -9 11 -65 22 -65 5 0 14 8 19 18 10 16 10 16 11 0 0
-26 15 -22 28 7 14 31 15 35 3 35 -5 0 -12 -8 -14 -17 -4 -17 -5 -17 -6 0 -1
19 -31 24 -31 5 0 -6 -6 -4 -13 6 -7 9 -15 14 -19 11z"/>
<path d="M1776 1739 c-18 -26 -21 -49 -6 -49 6 0 10 9 10 20 0 11 5 20 10 20
6 0 10 -8 8 -17 -2 -10 4 -19 15 -21 15 -3 16 0 5 25 -18 43 -24 47 -42 22z"/>
<path d="M2768 1752 c-12 -2 -18 -13 -18 -33 0 -26 4 -29 30 -29 26 0 30 3 30
29 0 30 -13 40 -42 33z m27 -42 c-3 -5 -10 -10 -16 -10 -5 0 -9 5 -9 10 0 6 7
10 16 10 8 0 12 -4 9 -10z"/>
<path d="M668 1720 c5 -37 11 -37 40 1 l24 29 -35 0 c-32 0 -33 -2 -29 -30z
m39 14 c-3 -3 -12 -4 -19 -1 -8 3 -5 6 6 6 11 1 17 -2 13 -5z"/>
<path d="M750 1720 c0 -19 5 -30 14 -30 8 0 12 9 11 25 -2 16 2 25 11 25 8 0
14 -4 14 -10 0 -5 -5 -10 -11 -10 -8 0 -8 -5 1 -15 18 -22 25 -18 27 15 2 28
0 30 -32 30 -32 0 -35 -2 -35 -30z"/>
<path d="M850 1720 c0 -27 3 -30 30 -30 27 0 30 3 30 30 0 27 -3 30 -30 30
-27 0 -30 -3 -30 -30z m50 0 c0 -11 -7 -20 -15 -20 -8 0 -15 9 -15 20 0 11 7
20 15 20 8 0 15 -9 15 -20z"/>
<path d="M1114 1735 c-11 -27 4 -47 33 -43 22 2 29 9 31 31 3 24 0 27 -28 27
-18 0 -33 -6 -36 -15z m46 -15 c0 -11 -7 -20 -15 -20 -8 0 -15 9 -15 20 0 11
7 20 15 20 8 0 15 -9 15 -20z"/>
<path d="M1210 1720 c0 -26 3 -30 29 -30 24 0 29 5 33 30 3 20 0 30 -9 30 -7
0 -12 -9 -10 -21 1 -12 -4 -24 -10 -26 -8 -3 -13 5 -13 21 0 14 -4 26 -10 26
-5 0 -10 -13 -10 -30z"/>
<path d="M1310 1720 c0 -16 5 -30 10 -30 6 0 10 5 10 12 0 9 3 9 12 0 18 -18
23 -15 25 18 2 27 -1 30 -27 30 -27 0 -30 -3 -30 -30z m40 10 c0 -5 -4 -10 -9
-10 -6 0 -13 5 -16 10 -3 6 1 10 9 10 9 0 16 -4 16 -10z"/>
<path d="M1458 1743 c6 -2 12 -16 12 -29 0 -13 5 -24 10 -24 6 0 10 11 10 24
0 13 6 27 13 29 6 3 -4 5 -23 5 -19 0 -29 -2 -22 -5z"/>
<path d="M1911 1743 c11 -3 15 -12 11 -28 -2 -15 0 -25 7 -25 6 0 11 11 11 24
0 13 6 27 13 29 6 3 -4 5 -23 5 -19 0 -28 -2 -19 -5z"/>
<path d="M1990 1720 c0 -26 3 -30 29 -30 30 0 45 19 35 45 -9 22 -21 18 -20
-6 1 -12 -5 -24 -13 -27 -10 -3 -13 2 -9 22 4 18 1 26 -8 26 -9 0 -14 -11 -14
-30z"/>
<path d="M2143 1720 c14 -37 19 -37 34 -3 13 28 8 47 -6 24 -6 -9 -11 -10 -15
-2 -15 23 -24 10 -13 -19z"/>
<path d="M2220 1720 c0 -26 3 -30 29 -30 31 0 41 13 33 43 -3 11 -14 17 -33
17 -26 0 -29 -4 -29 -30z m43 6 c6 -15 -1 -26 -15 -26 -4 0 -8 9 -8 20 0 23
15 27 23 6z"/>
<path d="M2322 1723 c2 -22 9 -29 29 -31 23 -3 27 1 31 27 3 19 0 31 -7 31 -6
0 -11 -10 -11 -21 1 -12 -5 -24 -11 -26 -8 -3 -13 5 -13 21 0 14 -5 26 -11 26
-6 0 -9 -12 -7 -27z"/>
<path d="M2420 1720 c0 -16 5 -30 10 -30 6 0 10 5 10 12 0 9 3 9 12 0 18 -18
23 -15 25 18 2 27 -1 30 -27 30 -27 0 -30 -3 -30 -30z m40 10 c0 -5 -4 -10
-10 -10 -5 0 -10 5 -10 10 0 6 5 10 10 10 6 0 10 -4 10 -10z"/>
<path d="M2568 1743 c6 -2 12 -16 12 -29 0 -13 5 -24 10 -24 6 0 10 11 10 24
0 13 6 27 13 29 6 3 -4 5 -23 5 -19 0 -29 -2 -22 -5z"/>
<path d="M2660 1731 c-13 -25 -13 -41 0 -41 6 0 10 9 10 20 0 11 5 20 11 20 6
0 8 -9 4 -20 -5 -15 -2 -20 13 -20 18 0 19 3 9 30 -13 34 -32 39 -47 11z"/>
<path d="M2848 1720 c-4 -27 -2 -30 24 -30 15 0 28 5 28 10 0 6 -8 10 -17 8
-13 -2 -18 3 -17 20 1 33 -13 27 -18 -8z"/>
<path d="M2930 1720 c0 -27 3 -30 30 -30 17 0 30 4 30 9 0 5 -9 7 -20 4 -11
-3 -20 -1 -20 5 0 6 8 13 18 15 16 4 16 5 0 6 -10 0 -18 6 -18 11 0 6 -4 10
-10 10 -5 0 -10 -13 -10 -30z"/>
<path d="M2968 1743 c7 -3 16 -2 19 1 4 3 -2 6 -13 5 -11 0 -14 -3 -6 -6z"/>
<path d="M3029 1634 c-9 -11 -10 -20 -2 -32 9 -15 37 -17 221 -20 205 -2 211
-2 222 18 24 46 5 50 -220 50 -177 0 -209 -2 -221 -16z"/>
<path d="M560 1446 c0 -24 59 -145 115 -235 217 -350 567 -593 985 -682 90
-20 135 -23 315 -23 180 0 225 3 315 23 303 65 548 192 759 395 148 143 305
376 346 514 l6 22 -1420 0 c-1192 0 -1421 -2 -1421 -14z m1538 -122 c31 -62
24 -64 -11 -3 -15 27 -23 49 -19 49 4 0 18 -21 30 -46z m-755 29 c-56 -2 -151
-2 -210 0 -59 1 -13 3 102 3 116 0 164 -2 108 -3z m250 0 c-23 -2 -64 -2 -90
0 -26 2 -7 3 42 3 50 0 71 -1 48 -3z m105 0 c-10 -2 -28 -2 -40 0 -13 2 -5 4
17 4 22 1 32 -1 23 -4z m755 0 c-18 -2 -48 -2 -65 0 -18 2 -4 4 32 4 36 0 50
-2 33 -4z m-1718 -22 c3 -5 0 -13 -6 -17 -7 -4 -9 -3 -5 4 3 5 0 13 -6 15 -9
4 -10 6 -1 6 6 1 14 -3 18 -8z m2010 -1 c216 5 209 6 213 -12 3 -15 -4 -18
-42 -18 -30 0 -46 -4 -47 -12 0 -7 -5 -3 -11 10 -13 26 -33 29 -43 5 -6 -17
-7 -17 -16 0 -14 24 -34 21 -47 -5 l-11 -23 0 23 c-1 14 -7 22 -19 22 -11 0
-24 -10 -30 -22 -6 -13 -11 -18 -11 -11 -1 7 -7 10 -15 7 -8 -3 -16 3 -19 15
-6 24 6 29 53 24 19 -2 40 -3 45 -3z m-1795 -10 c0 -5 -5 -10 -11 -10 -5 0 -7
5 -4 10 3 6 8 10 11 10 2 0 4 -4 4 -10z m1058 -38 c73 -108 95 -237 54 -318
-11 -22 -27 -46 -36 -53 -11 -10 -10 -2 5 38 11 31 19 76 19 115 0 53 -6 75
-36 135 -19 39 -39 71 -44 71 -5 0 -25 -33 -45 -74 -43 -90 -49 -180 -14 -247
23 -47 8 -50 -25 -5 -30 40 -35 163 -9 231 19 49 82 155 93 155 3 0 20 -22 38
-48z m-608 -17 l0 -25 -202 2 c-202 3 -203 3 -206 26 l-3 22 205 0 206 0 0
-25z m157 -1 c-3 -3 -12 -4 -19 -1 -8 3 -5 6 6 6 11 1 17 -2 13 -5z m-407
-106 c0 -10 0 -21 -1 -24 0 -10 49 -44 85 -59 19 -8 55 -15 80 -15 53 0 69
-16 26 -25 -16 -4 -32 -11 -35 -16 -9 -14 -59 -11 -93 6 -36 18 -81 69 -83 93
-1 9 -3 26 -4 38 -1 12 4 21 11 21 8 0 14 -9 14 -19z m-63 -45 c0 -27 -1 -30
-4 -10 -2 15 -10 27 -16 27 -9 0 6 16 18 20 1 0 1 -17 2 -37z m910 0 c10 -25
13 -54 10 -83 -6 -48 -25 -100 -37 -100 -12 0 -31 52 -37 100 -6 48 17 120 37
120 6 0 18 -17 27 -37z m-1114 9 c14 -15 15 -19 2 -19 -8 0 -12 4 -9 8 2 4 -4
12 -13 18 -10 6 -13 11 -7 11 6 0 18 -8 27 -18z m423 -7 c18 -14 18 -14 -6
-14 -14 0 -38 6 -55 14 l-30 13 36 1 c19 1 44 -6 55 -14z m1379 0 c-16 -8 -43
-14 -60 -13 -23 1 -25 2 -7 5 12 2 22 9 22 14 0 5 17 9 38 8 l37 -1 -30 -13z
m-1615 1 c0 -2 -8 -10 -17 -17 -16 -13 -17 -12 -4 4 13 16 21 21 21 13z m1146
-90 c-19 -64 -66 -123 -114 -143 -49 -20 -49 -10 -2 27 22 18 50 51 61 74 12
22 15 35 8 29 -18 -18 -24 -16 -37 12 -8 18 -8 26 0 31 15 10 92 32 96 29 2
-2 -3 -29 -12 -59z m-407 29 c19 -19 6 -33 -25 -27 -24 4 -26 3 -19 -19 11
-36 40 -73 80 -104 38 -29 40 -41 5 -30 -56 18 -119 99 -135 174 l-7 34 43 -7
c24 -4 50 -13 58 -21z m976 0 c-35 -29 -99 -41 -138 -26 -16 6 -40 11 -55 12
l-27 1 30 8 c63 18 122 28 170 28 l50 1 -30 -24z m99 -24 c3 -5 -2 -15 -12
-22 -15 -12 -16 -12 -5 2 7 9 10 19 6 22 -3 4 -4 7 0 7 3 0 8 -4 11 -9z
m-1862 -55 c7 4 8 2 4 -4 -4 -7 -2 -12 4 -12 6 0 26 -16 46 -35 19 -19 30 -35
25 -35 -5 0 -17 10 -25 22 -9 12 -16 18 -16 13 0 -5 -13 4 -30 20 -16 16 -30
34 -29 39 0 6 3 5 6 -2 2 -6 10 -9 15 -6z m541 -34 c13 -15 14 -21 4 -31 -9
-10 -8 -11 7 -5 17 7 17 5 2 -25 -18 -35 -55 -54 -83 -44 -25 9 -33 23 -33 60
0 54 68 84 103 45z m897 8 c0 -5 -7 -7 -15 -4 -8 4 -15 8 -15 10 0 2 7 4 15 4
8 0 15 -4 15 -10z m-786 -46 c3 -8 2 -12 -4 -9 -6 3 -10 10 -10 16 0 14 7 11
14 -7z m814 -65 c-18 -11 -80 -2 -90 13 -14 23 -8 38 16 38 13 0 27 -8 30 -17
6 -15 9 -14 29 6 l22 22 3 -27 c2 -15 -2 -31 -10 -35z m-773 21 c3 -6 -1 -7
-9 -4 -18 7 -21 14 -7 14 6 0 13 -4 16 -10z m500 -17 c-2 -10 -4 -19 -4 -21
-1 -2 -6 0 -11 3 -8 5 -7 11 1 21 15 18 18 18 14 -3z m-75 -37 c0 -2 -7 -7
-16 -10 -8 -3 -12 -2 -9 4 6 10 25 14 25 6z m-213 -46 c4 -27 1 -25 -17 9 -9
19 -9 22 1 19 7 -2 14 -15 16 -28z m121 12 c2 -7 -2 -10 -11 -6 -12 4 -13 -1
-8 -28 6 -30 11 -34 51 -39 l45 -6 -57 -1 -58 -2 0 51 c0 42 3 50 17 47 9 -2
18 -9 21 -16z m-426 -4 c-9 -9 -9 -15 0 -27 10 -13 10 -14 -1 -4 -7 6 -21 9
-30 6 -9 -4 -5 3 9 15 27 23 42 30 22 10z m239 -31 c-10 -9 -11 -8 -5 6 3 10
9 15 12 12 3 -3 0 -11 -7 -18z m66 -39 c-3 -7 -5 -2 -5 12 0 14 2 19 5 13 2
-7 2 -19 0 -25z m248 23 c-3 -5 3 -12 12 -14 14 -4 13 -5 -4 -6 -14 -1 -23 5
-23 14 0 8 5 15 11 15 5 0 8 -4 4 -9z m-365 -17 c0 -2 -9 -4 -20 -4 -11 0 -20
4 -20 9 0 5 9 7 20 4 11 -3 20 -7 20 -9z m66 -12 c-16 -2 -32 0 -37 5 -5 5 7
7 29 4 34 -5 35 -6 8 -9z m579 -2 c-27 -12 -43 -12 -25 0 8 5 22 9 30 9 10 0
8 -3 -5 -9z m-558 -76 c-3 -3 -12 -4 -19 -1 -8 3 -5 6 6 6 11 1 17 -2 13 -5z"/>
</g>
</svg>
